<svg width="338" height="322" version="1.1" xmlns="http://www.w3.org/2000/svg" desc="Created with imagetracer.js version 1.2.6" ><path fill="rgb(0,0,0)" stroke="rgb(0,0,0)" stroke-width="1" opacity="0" d="M 0 0 L 338 0 L 338 322 L 250.5 322 L 250 317.5 L 236 254.5 L 237 254.5 L 253.5 277 L 274.5 284 L 279 280.5 L 284 270.5 L 283 266.5 L 286 211.5 L 292.5 196 Q 313.4 196.9 323 186.5 L 322 177.5 L 326 165.5 L 318 159.5 L 314.5 150 L 304.5 149 L 281 163 L 275.5 152 L 267.5 151 L 260 161.5 Q 263.7 192.6 256 211 L 254 209.5 L 236.5 188 L 206 178 L 200 165.5 L 209.5 154 L 225 141.5 L 237 121.5 L 241 115.5 L 239.5 112 L 231 111.5 L 234.5 107 L 239 109 L 244 92 L 248 93 L 251 62.5 Q 247.9 38.6 232.5 27 L 216.5 23 L 203 30.5 L 195 49 L 187 47.5 Q 191.2 35.7 180.5 39 L 154.5 50 L 152.5 46 L 150 47.5 L 139.5 61 L 125.5 36 Q 116.7 27.3 97.5 29 L 80 40.5 Q 65.4 54.9 69 87.5 L 74 101 L 79 103.5 L 91.5 124 L 94 123 L 95.5 119 L 97 120.5 L 99 124 L 111 130 L 110 133.5 L 152 165.5 L 154 169.5 L 150.5 177 L 137 181 L 134.5 179 L 117 193.5 L 98.5 221 L 86 209.5 L 77 185.5 L 78 176.5 L 73.5 170 L 61 176.5 L 57 187 Q 50 176.1 29.5 178 L 24 181.5 L 22 190 L 19 191.5 L 17 200.5 L 21 205.5 L 17 214.5 L 22.5 221 L 47.5 225 L 55.5 224 L 63 229.5 Q 67.2 257.1 82 273 L 93 281.5 L 95.5 285 L 100.5 283 L 105.5 285 L 126 261 L 128 259.5 L 129 259.5 Q 124.7 296.9 109 322 L 0 322 L 0 0 Z " /><path fill="rgb(221,183,176)" stroke="rgb(221,183,176)" stroke-width="1" opacity="1" d="M 216.5 23 L 223 23.5 L 216.5 24 L 216.5 23 Z " /><path fill="rgb(221,183,176)" stroke="rgb(221,183,176)" stroke-width="1" opacity="1" d="M 224.5 24 L 241 35.5 L 233.5 29 L 224.5 24 Z " /><path fill="rgb(221,183,176)" stroke="rgb(221,183,176)" stroke-width="1" opacity="1" d="M 206.5 27 L 203.5 31 L 206.5 27 Z " /><path fill="rgb(221,183,176)" stroke="rgb(221,183,176)" stroke-width="1" opacity="1" d="M 97.5 29 L 100 29.5 L 97.5 30 L 97.5 29 Z " /><path fill="rgb(221,183,176)" stroke="rgb(221,183,176)" stroke-width="1" opacity="1" d="M 105.5 29 L 111 29.5 L 105.5 30 L 105.5 29 Z " /><path fill="rgb(221,183,176)" stroke="rgb(221,183,176)" stroke-width="1" opacity="1" d="M 94.5 30 L 93.5 32 L 92 31.5 L 94.5 30 Z " /><path fill="rgb(221,183,176)" stroke="rgb(221,183,176)" stroke-width="1" opacity="1" d="M 116.5 31 L 121 33.5 L 119.5 33 L 116.5 31 Z " /><path fill="rgb(221,183,176)" stroke="rgb(221,183,176)" stroke-width="1" opacity="1" d="M 90.5 32 L 89.5 34 L 87.5 35 L 88.5 33 L 90.5 32 Z " /><path fill="rgb(221,183,176)" stroke="rgb(221,183,176)" stroke-width="1" opacity="1" d="M 201.5 33 L 200.5 35 L 201.5 33 Z " /><path fill="rgb(221,183,176)" stroke="rgb(221,183,176)" stroke-width="1" opacity="1" d="M 122.5 34 L 123.5 36 L 122.5 34 Z " /><path fill="rgb(221,183,176)" stroke="rgb(221,183,176)" stroke-width="1" opacity="1" d="M 85.5 35 L 80.5 41 L 85.5 35 Z " /><path fill="rgb(221,183,176)" stroke="rgb(221,183,176)" stroke-width="1" opacity="1" d="M 125.5 36 L 129.5 41 L 125.5 36 Z " /><path fill="rgb(221,183,176)" stroke="rgb(221,183,176)" stroke-width="1" opacity="1" d="M 241.5 37 L 242.5 39 L 241.5 37 Z " /><path fill="rgb(221,183,176)" stroke="rgb(221,183,176)" stroke-width="1" opacity="1" d="M 180.5 39 L 183 39.5 L 180.5 40 L 180.5 39 Z " /><path fill="rgb(221,183,176)" stroke="rgb(221,183,176)" stroke-width="1" opacity="1" d="M 78.5 43 L 77.5 45 L 78.5 43 Z " /><path fill="rgb(221,183,176)" stroke="rgb(221,183,176)" stroke-width="1" opacity="1" d="M 131.5 43 L 132.5 45 L 131.5 43 Z " /><path fill="rgb(221,183,176)" stroke="rgb(221,183,176)" stroke-width="1" opacity="1" d="M 186.5 44 L 188 48.5 L 186 49 L 186.5 44 Z " /><path fill="rgb(221,183,176)" stroke="rgb(221,183,176)" stroke-width="1" opacity="1" d="M 76.5 46 L 76 47.5 L 74.5 51 L 74 49.5 L 76.5 46 Z " /><path fill="rgb(221,183,176)" stroke="rgb(221,183,176)" stroke-width="1" opacity="1" d="M 152.5 46 L 154.5 50 L 156 49.5 L 153 51 L 152.5 46 Z " /><path fill="rgb(221,183,176)" stroke="rgb(221,183,176)" stroke-width="1" opacity="1" d="M 148.5 50 L 147.5 52 L 148.5 50 Z " /><path fill="rgb(221,183,176)" stroke="rgb(221,183,176)" stroke-width="1" opacity="1" d="M 136.5 52 L 138 55.5 L 137 55.5 L 136.5 52 Z " /><path fill="rgb(221,183,176)" stroke="rgb(221,183,176)" stroke-width="1" opacity="1" d="M 101.5 53 L 107 54.5 L 108 57 L 111 58.5 L 112 65.5 L 109 73.5 L 109.5 75 L 108 74.5 L 106 80.5 L 105 83.5 L 100 111.5 L 101 114.5 L 97 117 L 95.5 114 L 93 115.5 L 91.5 119 L 76.5 94 L 74 95 L 73 84.5 L 80 69 L 84 66.5 L 88 60 L 93 59 L 94.5 57 L 101.5 53 Z " /><path fill="rgb(221,183,176)" stroke="rgb(221,183,176)" stroke-width="1" opacity="1" d="M 145.5 54 L 144.5 56 L 145.5 54 Z " /><path fill="rgb(221,183,176)" stroke="rgb(221,183,176)" stroke-width="1" opacity="1" d="M 249.5 56 L 250 58.5 L 249 58.5 L 249.5 56 Z " /><path fill="rgb(221,183,176)" stroke="rgb(221,183,176)" stroke-width="1" opacity="1" d="M 142.5 58 L 139.5 62 L 142.5 58 Z " /><path fill="rgb(221,183,176)" stroke="rgb(221,183,176)" stroke-width="1" opacity="1" d="M 250.5 62 L 251 70.5 L 250 70.5 L 250.5 62 Z " /><path fill="rgb(221,183,176)" stroke="rgb(221,183,176)" stroke-width="1" opacity="1" d="M 69.5 64 L 70 66.5 L 69 66.5 L 69.5 64 Z " /><path fill="rgb(221,183,176)" stroke="rgb(221,183,176)" stroke-width="1" opacity="1" d="M 157.5 80 L 173 87.5 L 178 106.5 L 168.5 120 L 156.5 123 L 141 115.5 L 139 102.5 L 149.5 83 L 157.5 80 Z M 161 85 L 159 86 L 152 98 L 155 112 L 162 116 L 169 115 L 176 102 L 173 91 L 161 85 Z " /><path fill="rgb(221,183,176)" stroke="rgb(221,183,176)" stroke-width="1" opacity="1" d="M 206.5 80 L 214 81 L 219 102.5 L 216 110 L 206.5 112 L 202 109.5 L 209 107 L 212 94.5 L 206.5 85 L 201 84.5 L 206.5 80 Z " /><path fill="rgb(221,183,176)" stroke="rgb(221,183,176)" stroke-width="1" opacity="1" d="M 69.5 85 L 70 87.5 L 69 87.5 L 69.5 85 Z " /><path fill="rgb(221,183,176)" stroke="rgb(221,183,176)" stroke-width="1" opacity="1" d="M 203.5 89 L 206 90 L 207 99.5 L 201.5 102 L 199 92.5 L 203.5 89 Z " /><path fill="rgb(221,183,176)" stroke="rgb(221,183,176)" stroke-width="1" opacity="1" d="M 166.5 90 L 172 92.5 L 173 100.5 L 169.5 106 L 167.5 107 L 163 104.5 L 161 98.5 L 164.5 91 L 166.5 90 Z " /><path fill="rgb(221,183,176)" stroke="rgb(221,183,176)" stroke-width="1" opacity="1" d="M 76.5 100 L 78 101.5 L 78.5 103 L 76.5 100 Z " /><path fill="rgb(221,183,176)" stroke="rgb(221,183,176)" stroke-width="1" opacity="1" d="M 234.5 106 L 239 108.5 L 236.5 109 L 234.5 106 Z " /><path fill="rgb(221,183,176)" stroke="rgb(221,183,176)" stroke-width="1" opacity="1" d="M 233.5 108 L 231.5 113 L 233.5 108 Z " /><path fill="rgb(221,183,176)" stroke="rgb(221,183,176)" stroke-width="1" opacity="1" d="M 82.5 110 L 83.5 112 L 82.5 110 Z " /><path fill="rgb(221,183,176)" stroke="rgb(221,183,176)" stroke-width="1" opacity="1" d="M 234.5 112 L 241 113.5 L 236 120.5 L 236.5 122 L 234 121.5 L 240 113 L 234.5 112 Z " /><path fill="rgb(221,183,176)" stroke="rgb(221,183,176)" stroke-width="1" opacity="1" d="M 85.5 115 L 86.5 117 L 85.5 115 Z " /><path fill="rgb(221,183,176)" stroke="rgb(221,183,176)" stroke-width="1" opacity="1" d="M 95.5 118 L 94.5 120 L 95.5 118 Z " /><path fill="rgb(221,183,176)" stroke="rgb(221,183,176)" stroke-width="1" opacity="1" d="M 191.5 118 L 200 119 L 198.5 122 L 190.5 124 L 182 121.5 L 191.5 118 Z " /><path fill="rgb(221,183,176)" stroke="rgb(221,183,176)" stroke-width="1" opacity="1" d="M 97.5 120 L 100.5 124 L 99 122.5 L 97.5 120 Z " /><path fill="rgb(221,183,176)" stroke="rgb(221,183,176)" stroke-width="1" opacity="1" d="M 90.5 122 L 91.5 124 L 90.5 122 Z " /><path fill="rgb(221,183,176)" stroke="rgb(221,183,176)" stroke-width="1" opacity="1" d="M 102.5 124 L 104.5 127 L 102.5 124 Z " /><path fill="rgb(221,183,176)" stroke="rgb(221,183,176)" stroke-width="1" opacity="1" d="M 106.5 127 L 107.5 129 L 106.5 127 Z " /><path fill="rgb(221,183,176)" stroke="rgb(221,183,176)" stroke-width="1" opacity="1" d="M 111.5 128 L 114 129.5 L 111.5 131 L 109 129.5 L 111.5 128 Z " /><path fill="rgb(221,183,176)" stroke="rgb(221,183,176)" stroke-width="1" opacity="1" d="M 110.5 132 L 123 145.5 L 110 133.5 L 110.5 132 Z " /><path fill="rgb(221,183,176)" stroke="rgb(221,183,176)" stroke-width="1" opacity="1" d="M 231.5 132 L 230.5 134 L 231.5 132 Z " /><path fill="rgb(221,183,176)" stroke="rgb(221,183,176)" stroke-width="1" opacity="1" d="M 229.5 135 L 226.5 139 L 229.5 135 Z " /><path fill="rgb(221,183,176)" stroke="rgb(221,183,176)" stroke-width="1" opacity="1" d="M 221.5 144 L 220.5 146 L 221.5 144 Z " /><path fill="rgb(221,183,176)" stroke="rgb(221,183,176)" stroke-width="1" opacity="1" d="M 124.5 146 L 125.5 148 L 124.5 146 Z " /><path fill="rgb(221,183,176)" stroke="rgb(221,183,176)" stroke-width="1" opacity="1" d="M 218.5 146 L 215.5 150 L 218.5 146 Z " /><path fill="rgb(221,183,176)" stroke="rgb(221,183,176)" stroke-width="1" opacity="1" d="M 213.5 150 L 210.5 154 L 213.5 150 Z " /><path fill="rgb(221,183,176)" stroke="rgb(221,183,176)" stroke-width="1" opacity="1" d="M 314.5 150 L 316.5 153 L 314.5 150 Z " /><path fill="rgb(221,183,176)" stroke="rgb(221,183,176)" stroke-width="1" opacity="1" d="M 267.5 151 L 269 151.5 L 263 156.5 L 261.5 160 L 261 158.5 L 267.5 151 Z " /><path fill="rgb(221,183,176)" stroke="rgb(221,183,176)" stroke-width="1" opacity="1" d="M 133.5 152 L 134.5 154 L 133.5 152 Z " /><path fill="rgb(221,183,176)" stroke="rgb(221,183,176)" stroke-width="1" opacity="1" d="M 275.5 152 L 280 159.5 L 279 159.5 L 275.5 152 Z " /><path fill="rgb(221,183,176)" stroke="rgb(221,183,176)" stroke-width="1" opacity="1" d="M 298.5 152 L 297.5 154 L 298.5 152 Z " /><path fill="rgb(221,183,176)" stroke="rgb(221,183,176)" stroke-width="1" opacity="1" d="M 294.5 155 L 292.5 158 L 294.5 155 Z " /><path fill="rgb(221,183,176)" stroke="rgb(221,183,176)" stroke-width="1" opacity="1" d="M 290.5 158 L 289.5 160 L 290.5 158 Z " /><path fill="rgb(221,183,176)" stroke="rgb(221,183,176)" stroke-width="1" opacity="1" d="M 317.5 158 L 319 160.5 L 317 161 L 317.5 158 Z " /><path fill="rgb(221,183,176)" stroke="rgb(221,183,176)" stroke-width="1" opacity="1" d="M 203.5 160 L 201.5 163 L 203.5 160 Z " /><path fill="rgb(221,183,176)" stroke="rgb(221,183,176)" stroke-width="1" opacity="1" d="M 287.5 160 L 286.5 162 L 287.5 160 Z " /><path fill="rgb(221,183,176)" stroke="rgb(221,183,176)" stroke-width="1" opacity="1" d="M 147.5 161 L 148.5 163 L 147.5 161 Z " /><path fill="rgb(221,183,176)" stroke="rgb(221,183,176)" stroke-width="1" opacity="1" d="M 260.5 161 L 261 163.5 L 260 163.5 L 260.5 161 Z " /><path fill="rgb(221,183,176)" stroke="rgb(221,183,176)" stroke-width="1" opacity="1" d="M 152.5 166 L 154 168.5 L 153 168.5 L 152.5 166 Z " /><path fill="rgb(221,183,176)" stroke="rgb(221,183,176)" stroke-width="1" opacity="1" d="M 69.5 170 L 76 172.5 L 73.5 171 L 69.5 170 Z " /><path fill="rgb(221,183,176)" stroke="rgb(221,183,176)" stroke-width="1" opacity="1" d="M 153.5 170 L 152.5 172 L 153.5 170 Z " /><path fill="rgb(221,183,176)" stroke="rgb(221,183,176)" stroke-width="1" opacity="1" d="M 66.5 171 L 61.5 177 L 66.5 171 Z " /><path fill="rgb(221,183,176)" stroke="rgb(221,183,176)" stroke-width="1" opacity="1" d="M 201.5 171 L 202.5 173 L 201.5 171 Z " /><path fill="rgb(221,183,176)" stroke="rgb(221,183,176)" stroke-width="1" opacity="1" d="M 325.5 172 L 324.5 174 L 325.5 172 Z " /><path fill="rgb(221,183,176)" stroke="rgb(221,183,176)" stroke-width="1" opacity="1" d="M 150.5 173 L 152.5 176 L 150.5 173 Z " /><path fill="rgb(221,183,176)" stroke="rgb(221,183,176)" stroke-width="1" opacity="1" d="M 203.5 174 L 205.5 177 L 203.5 174 Z " /><path fill="rgb(221,183,176)" stroke="rgb(221,183,176)" stroke-width="1" opacity="1" d="M 323.5 175 L 322 177.5 L 321.5 179 L 321 177.5 L 323.5 175 Z " /><path fill="rgb(221,183,176)" stroke="rgb(221,183,176)" stroke-width="1" opacity="1" d="M 77.5 176 L 78 184.5 L 77 184.5 L 77.5 176 Z " /><path fill="rgb(221,183,176)" stroke="rgb(221,183,176)" stroke-width="1" opacity="1" d="M 149.5 177 L 148.5 179 L 149.5 177 Z " /><path fill="rgb(221,183,176)" stroke="rgb(221,183,176)" stroke-width="1" opacity="1" d="M 26.5 179 L 24.5 182 L 26.5 179 Z " /><path fill="rgb(221,183,176)" stroke="rgb(221,183,176)" stroke-width="1" opacity="1" d="M 134.5 179 L 133.5 181 L 134.5 179 Z " /><path fill="rgb(221,183,176)" stroke="rgb(221,183,176)" stroke-width="1" opacity="1" d="M 260.5 180 L 261 192.5 L 260 192.5 L 260.5 180 Z " /><path fill="rgb(221,183,176)" stroke="rgb(221,183,176)" stroke-width="1" opacity="1" d="M 131.5 181 L 130.5 183 L 131.5 181 Z " /><path fill="rgb(221,183,176)" stroke="rgb(221,183,176)" stroke-width="1" opacity="1" d="M 214.5 181 L 217 181.5 L 214.5 182 L 214.5 181 Z " /><path fill="rgb(221,183,176)" stroke="rgb(221,183,176)" stroke-width="1" opacity="1" d="M 219.5 182 L 224 182.5 L 219.5 183 L 219.5 182 Z " /><path fill="rgb(221,183,176)" stroke="rgb(221,183,176)" stroke-width="1" opacity="1" d="M 49.5 183 L 50.5 185 L 49.5 183 Z " /><path fill="rgb(221,183,176)" stroke="rgb(221,183,176)" stroke-width="1" opacity="1" d="M 127.5 184 L 126.5 186 L 127.5 184 Z " /><path fill="rgb(221,183,176)" stroke="rgb(221,183,176)" stroke-width="1" opacity="1" d="M 226.5 184 L 229 185.5 L 227.5 186 L 226.5 184 Z " /><path fill="rgb(221,183,176)" stroke="rgb(221,183,176)" stroke-width="1" opacity="1" d="M 22.5 185 L 23 189.5 L 22 189.5 L 22.5 185 Z " /><path fill="rgb(221,183,176)" stroke="rgb(221,183,176)" stroke-width="1" opacity="1" d="M 322.5 185 L 323 186.5 L 315.5 192 L 315.5 191 L 322 186.5 L 322.5 185 Z " /><path fill="rgb(221,183,176)" stroke="rgb(221,183,176)" stroke-width="1" opacity="1" d="M 124.5 186 L 117.5 194 L 124.5 186 Z " /><path fill="rgb(221,183,176)" stroke="rgb(221,183,176)" stroke-width="1" opacity="1" d="M 232.5 186 L 235 187.5 L 233.5 187 L 232.5 186 Z " /><path fill="rgb(221,183,176)" stroke="rgb(221,183,176)" stroke-width="1" opacity="1" d="M 236.5 188 L 244.5 197 L 236.5 188 Z " /><path fill="rgb(221,183,176)" stroke="rgb(221,183,176)" stroke-width="1" opacity="1" d="M 20.5 190 L 19.5 192 L 20.5 190 Z " /><path fill="rgb(221,183,176)" stroke="rgb(221,183,176)" stroke-width="1" opacity="1" d="M 77.5 192 L 78 194.5 L 77 194.5 L 77.5 192 Z " /><path fill="rgb(221,183,176)" stroke="rgb(221,183,176)" stroke-width="1" opacity="1" d="M 307.5 193 L 310 193.5 L 307.5 194 L 307.5 193 Z " /><path fill="rgb(221,183,176)" stroke="rgb(221,183,176)" stroke-width="1" opacity="1" d="M 299.5 194 L 304 194.5 L 299.5 195 L 299.5 194 Z " /><path fill="rgb(221,183,176)" stroke="rgb(221,183,176)" stroke-width="1" opacity="1" d="M 293.5 195 L 298 195.5 L 293.5 196 L 293.5 195 Z " /><path fill="rgb(221,183,176)" stroke="rgb(221,183,176)" stroke-width="1" opacity="1" d="M 115.5 196 L 114.5 198 L 115.5 196 Z " /><path fill="rgb(221,183,176)" stroke="rgb(221,183,176)" stroke-width="1" opacity="1" d="M 291.5 196 L 289.5 199 L 291.5 196 Z " /><path fill="rgb(221,183,176)" stroke="rgb(221,183,176)" stroke-width="1" opacity="1" d="M 259.5 197 L 260 200.5 L 259 200.5 L 259.5 197 Z " /><path fill="rgb(221,183,176)" stroke="rgb(221,183,176)" stroke-width="1" opacity="1" d="M 247.5 200 L 249.5 203 L 247.5 200 Z " /><path fill="rgb(221,183,176)" stroke="rgb(221,183,176)" stroke-width="1" opacity="1" d="M 18.5 202 Q 25.5 205.5 18.5 209 L 18.5 202 Z " /><path fill="rgb(221,183,176)" stroke="rgb(221,183,176)" stroke-width="1" opacity="1" d="M 258.5 202 L 259 203.5 L 256.5 209 L 256 205.5 L 258.5 202 Z " /><path fill="rgb(221,183,176)" stroke="rgb(221,183,176)" stroke-width="1" opacity="1" d="M 110.5 204 L 109.5 206 L 110.5 204 Z " /><path fill="rgb(221,183,176)" stroke="rgb(221,183,176)" stroke-width="1" opacity="1" d="M 250.5 204 L 251.5 206 L 250.5 204 Z " /><path fill="rgb(221,183,176)" stroke="rgb(221,183,176)" stroke-width="1" opacity="1" d="M 83.5 206 L 85.5 209 L 83.5 206 Z " /><path fill="rgb(221,183,176)" stroke="rgb(221,183,176)" stroke-width="1" opacity="1" d="M 286.5 207 L 287 210.5 L 286 210.5 L 286.5 207 Z " /><path fill="rgb(221,183,176)" stroke="rgb(221,183,176)" stroke-width="1" opacity="1" d="M 17.5 210 L 18 214.5 L 17 214.5 L 17.5 210 Z " /><path fill="rgb(221,183,176)" stroke="rgb(221,183,176)" stroke-width="1" opacity="1" d="M 106.5 211 L 104.5 214 L 106.5 211 Z " /><path fill="rgb(221,183,176)" stroke="rgb(221,183,176)" stroke-width="1" opacity="1" d="M 90.5 213 L 94.5 218 L 90.5 213 Z " /><path fill="rgb(221,183,176)" stroke="rgb(221,183,176)" stroke-width="1" opacity="1" d="M 103.5 215 L 101.5 218 L 103.5 215 Z " /><path fill="rgb(221,183,176)" stroke="rgb(221,183,176)" stroke-width="1" opacity="1" d="M 285.5 215 L 286 232.5 L 285 232.5 L 285.5 215 Z " /><path fill="rgb(221,183,176)" stroke="rgb(221,183,176)" stroke-width="1" opacity="1" d="M 18.5 216 L 22.5 221 L 18.5 216 Z " /><path fill="rgb(221,183,176)" stroke="rgb(221,183,176)" stroke-width="1" opacity="1" d="M 96.5 219 L 97.5 221 L 96.5 219 Z " /><path fill="rgb(221,183,176)" stroke="rgb(221,183,176)" stroke-width="1" opacity="1" d="M 32.5 224 L 48 224.5 L 32.5 225 L 32.5 224 Z " /><path fill="rgb(221,183,176)" stroke="rgb(221,183,176)" stroke-width="1" opacity="1" d="M 60.5 226 L 62.5 229 L 60.5 226 Z " /><path fill="rgb(221,183,176)" stroke="rgb(221,183,176)" stroke-width="1" opacity="1" d="M 285.5 246 L 286 253.5 L 285 253.5 L 285.5 246 Z " /><path fill="rgb(221,183,176)" stroke="rgb(221,183,176)" stroke-width="1" opacity="1" d="M 235.5 251 L 237 253.5 L 235.5 256 L 235.5 251 Z " /><path fill="rgb(221,183,176)" stroke="rgb(221,183,176)" stroke-width="1" opacity="1" d="M 129.5 257 L 128.5 259 L 129.5 257 Z " /><path fill="rgb(221,183,176)" stroke="rgb(221,183,176)" stroke-width="1" opacity="1" d="M 238.5 257 L 239.5 259 L 238.5 257 Z " /><path fill="rgb(221,183,176)" stroke="rgb(221,183,176)" stroke-width="1" opacity="1" d="M 284.5 257 L 285 260.5 L 284 260.5 L 284.5 257 Z " /><path fill="rgb(221,183,176)" stroke="rgb(221,183,176)" stroke-width="1" opacity="1" d="M 236.5 259 L 237 264.5 L 236 264.5 L 236.5 259 Z " /><path fill="rgb(221,183,176)" stroke="rgb(221,183,176)" stroke-width="1" opacity="1" d="M 240.5 260 L 241.5 262 L 240.5 260 Z " /><path fill="rgb(221,183,176)" stroke="rgb(221,183,176)" stroke-width="1" opacity="1" d="M 74.5 262 L 76.5 265 L 74.5 262 Z " /><path fill="rgb(221,183,176)" stroke="rgb(221,183,176)" stroke-width="1" opacity="1" d="M 125.5 262 L 123.5 265 L 125.5 262 Z " /><path fill="rgb(221,183,176)" stroke="rgb(221,183,176)" stroke-width="1" opacity="1" d="M 128.5 262 L 129 265.5 L 128 265.5 L 128.5 262 Z " /><path fill="rgb(221,183,176)" stroke="rgb(221,183,176)" stroke-width="1" opacity="1" d="M 122.5 266 L 119.5 270 L 122.5 266 Z " /><path fill="rgb(221,183,176)" stroke="rgb(221,183,176)" stroke-width="1" opacity="1" d="M 244.5 266 L 246.5 269 L 244.5 266 Z " /><path fill="rgb(221,183,176)" stroke="rgb(221,183,176)" stroke-width="1" opacity="1" d="M 78.5 267 L 80.5 270 L 78.5 267 Z " /><path fill="rgb(221,183,176)" stroke="rgb(221,183,176)" stroke-width="1" opacity="1" d="M 127.5 268 L 128 271.5 L 127 271.5 L 127.5 268 Z " /><path fill="rgb(221,183,176)" stroke="rgb(221,183,176)" stroke-width="1" opacity="1" d="M 282.5 268 L 284 271.5 L 283 271.5 L 282.5 268 Z " /><path fill="rgb(221,183,176)" stroke="rgb(221,183,176)" stroke-width="1" opacity="1" d="M 237.5 269 L 238 271.5 L 237 271.5 L 237.5 269 Z " /><path fill="rgb(221,183,176)" stroke="rgb(221,183,176)" stroke-width="1" opacity="1" d="M 248.5 271 L 253.5 277 L 248.5 271 Z " /><path fill="rgb(221,183,176)" stroke="rgb(221,183,176)" stroke-width="1" opacity="1" d="M 117.5 272 L 114.5 276 L 117.5 272 Z " /><path fill="rgb(221,183,176)" stroke="rgb(221,183,176)" stroke-width="1" opacity="1" d="M 282.5 273 L 280.5 276 L 282.5 273 Z " /><path fill="rgb(221,183,176)" stroke="rgb(221,183,176)" stroke-width="1" opacity="1" d="M 86.5 275 L 90.5 280 L 86.5 275 Z " /><path fill="rgb(221,183,176)" stroke="rgb(221,183,176)" stroke-width="1" opacity="1" d="M 255.5 277 L 256.5 279 L 255.5 277 Z " /><path fill="rgb(221,183,176)" stroke="rgb(221,183,176)" stroke-width="1" opacity="1" d="M 279.5 277 L 278.5 279 L 279.5 277 Z " /><path fill="rgb(221,183,176)" stroke="rgb(221,183,176)" stroke-width="1" opacity="1" d="M 258.5 279 L 259.5 281 L 258.5 279 Z " /><path fill="rgb(221,183,176)" stroke="rgb(221,183,176)" stroke-width="1" opacity="1" d="M 278.5 280 L 276.5 283 L 278.5 280 Z " /><path fill="rgb(221,183,176)" stroke="rgb(221,183,176)" stroke-width="1" opacity="1" d="M 108.5 281 L 105.5 285 L 108.5 281 Z " /><path fill="rgb(221,183,176)" stroke="rgb(221,183,176)" stroke-width="1" opacity="1" d="M 93.5 282 L 94.5 284 L 93.5 282 Z " /><path fill="rgb(221,183,176)" stroke="rgb(221,183,176)" stroke-width="1" opacity="1" d="M 100.5 282 L 102.5 285 L 100.5 282 Z " /><path fill="rgb(221,183,176)" stroke="rgb(221,183,176)" stroke-width="1" opacity="1" d="M 266.5 283 L 269 283.5 L 266.5 284 L 266.5 283 Z " /><path fill="rgb(221,183,176)" stroke="rgb(221,183,176)" stroke-width="1" opacity="1" d="M 272.5 283 L 275 283.5 L 272.5 284 L 272.5 283 Z " /><path fill="rgb(221,183,176)" stroke="rgb(221,183,176)" stroke-width="1" opacity="1" d="M 120.5 294 L 121 296 L 118.5 297 L 120.5 294 Z " /><path fill="rgb(221,183,176)" stroke="rgb(221,183,176)" stroke-width="1" opacity="1" d="M 247.5 305 L 248 307.5 L 247 307.5 L 247.5 305 Z " /><path fill="rgb(221,183,176)" stroke="rgb(221,183,176)" stroke-width="1" opacity="1" d="M 248.5 311 L 249 313.5 L 248 313.5 L 248.5 311 Z " /><path fill="rgb(221,183,176)" stroke="rgb(221,183,176)" stroke-width="1" opacity="1" d="M 249.5 317 L 250 319.5 L 249 319.5 L 249.5 317 Z " /><path fill="rgb(214,128,45)" stroke="rgb(214,128,45)" stroke-width="1" opacity="1" d="M 100.5 29 L 105 29.5 L 100.5 30 L 100.5 29 Z " /><path fill="rgb(214,128,45)" stroke="rgb(214,128,45)" stroke-width="1" opacity="1" d="M 226.5 31 L 237 38 Q 249.1 49.2 248 74.5 L 241.5 88 L 235 83.5 L 216.5 47 L 215 45.5 L 212 41.5 L 218.5 34 L 226.5 31 Z " /><path fill="rgb(214,128,45)" stroke="rgb(214,128,45)" stroke-width="1" opacity="1" d="M 98.5 32 Q 120 29.5 127 41.5 L 136 66.5 L 134 67.5 L 132 56.5 L 132.5 55 L 131 52.5 L 129 49 L 127 47.5 Q 119.8 34.7 98.5 36 L 82 46.5 L 80.5 49 L 78 48.5 L 87.5 37 L 98.5 32 Z " /><path fill="rgb(214,128,45)" stroke="rgb(214,128,45)" stroke-width="1" opacity="1" d="M 108.5 46 L 111 47.5 L 120 60.5 L 116 68.5 L 116.5 70 L 115 71.5 L 115 73.5 L 113.5 79 L 109 76 L 111 88.5 L 103.5 122 L 98 117.5 L 101 112.5 L 100 102.5 L 107 81.5 L 107 79.5 L 112 63.5 L 109.5 57 L 108 55.5 L 107 53 L 93 57 L 90.5 59 L 88 60 L 81.5 69 L 80 72.5 L 72.5 90 L 72 78.5 L 81.5 56 L 85.5 54 L 85.5 52 L 87.5 53 L 93 48.5 L 92.5 47 L 95.5 49 L 95.5 47 L 98.5 48 L 108.5 46 Z " /><path fill="rgb(214,128,45)" stroke="rgb(214,128,45)" stroke-width="1" opacity="1" d="M 151.5 46 L 150.5 48 L 151.5 46 Z " /><path fill="rgb(214,128,45)" stroke="rgb(214,128,45)" stroke-width="1" opacity="1" d="M 179.5 53 L 182.5 55 L 182.5 53 L 191.5 55 L 212 63.5 L 203 69 L 202 72.5 L 205 77.5 Q 194.5 83 196 100.5 L 200 108.5 L 198.5 108 L 197 108.5 L 197.5 110 L 194.5 109 L 192.5 109 L 183.5 110 L 182 106.5 L 182 104.5 L 183 101.5 L 182 95 L 180 91.5 L 178 91.5 L 172.5 84 L 153.5 78 L 140 86 L 133 99.5 L 133 101.5 L 138 118 L 151 124 L 154.5 126 L 160.5 128 L 176.5 125 L 186 131 L 187 137.5 L 174 144.5 L 184.5 146 L 200 140.5 L 195 138 L 202 120 L 205.5 119 L 207.5 119 L 220 112.5 L 222.5 108 L 226 127.5 L 215 146 L 211.5 148 L 207 151 L 205.5 153 Q 196.1 169.1 169.5 168 L 135 147.5 L 135.5 146 L 133 144.5 L 121 115 L 119 113.5 L 119 111.5 L 127.5 83 L 143 75.5 L 150 65.5 L 150 63.5 L 152 59.5 L 155.5 58 L 175.5 54 L 177.5 54 L 179.5 53 Z " /><path fill="rgb(214,128,45)" stroke="rgb(214,128,45)" stroke-width="1" opacity="1" d="M 250.5 71 L 251 80.5 L 250 80.5 L 250.5 71 Z " /><path fill="rgb(214,128,45)" stroke="rgb(214,128,45)" stroke-width="1" opacity="1" d="M 145.5 86 L 146 87.5 L 139.5 102 L 138 98.5 L 145.5 86 Z " /><path fill="rgb(214,128,45)" stroke="rgb(214,128,45)" stroke-width="1" opacity="1" d="M 76.5 94 L 75.5 96 L 74 95.5 L 76.5 94 Z " /><path fill="rgb(214,128,45)" stroke="rgb(214,128,45)" stroke-width="1" opacity="1" d="M 198.5 94 L 199 96.5 L 198 96.5 L 198.5 94 Z " /><path fill="rgb(214,128,45)" stroke="rgb(214,128,45)" stroke-width="1" opacity="1" d="M 219.5 100 L 220 102.5 L 218.5 105 L 218 103.5 L 219.5 100 Z " /><path fill="rgb(214,128,45)" stroke="rgb(214,128,45)" stroke-width="1" opacity="1" d="M 138.5 106 L 139 109.5 L 138 109.5 L 138.5 106 Z " /><path fill="rgb(214,128,45)" stroke="rgb(214,128,45)" stroke-width="1" opacity="1" d="M 201 108 L 203 108.5 L 202.5 111 L 201 108 Z " /><path fill="rgb(214,128,45)" stroke="rgb(214,128,45)" stroke-width="1" opacity="1" d="M 214.5 110 L 213.5 112 L 214.5 110 Z " /><path fill="rgb(214,128,45)" stroke="rgb(214,128,45)" stroke-width="1" opacity="1" d="M 139.5 112 L 141 114.5 L 139 113.5 L 139.5 112 Z " /><path fill="rgb(214,128,45)" stroke="rgb(214,128,45)" stroke-width="1" opacity="1" d="M 175.5 112 L 174.5 114 L 175.5 112 Z " /><path fill="rgb(214,128,45)" stroke="rgb(214,128,45)" stroke-width="1" opacity="1" d="M 208.5 112 L 211 112.5 L 208.5 113 L 208.5 112 Z " /><path fill="rgb(214,128,45)" stroke="rgb(214,128,45)" stroke-width="1" opacity="1" d="M 94.5 114 L 97 115.5 L 95.5 115 L 93.5 116 L 94.5 114 Z " /><path fill="rgb(214,128,45)" stroke="rgb(214,128,45)" stroke-width="1" opacity="1" d="M 161.5 115 L 165 115.5 L 161.5 116 L 161.5 115 Z " /><path fill="rgb(214,128,45)" stroke="rgb(214,128,45)" stroke-width="1" opacity="1" d="M 173.5 115 L 171.5 118 L 173.5 115 Z " /><path fill="rgb(214,128,45)" stroke="rgb(214,128,45)" stroke-width="1" opacity="1" d="M 141.5 116 L 143.5 119 L 141.5 116 Z " /><path fill="rgb(214,128,45)" stroke="rgb(214,128,45)" stroke-width="1" opacity="1" d="M 96.5 118 L 97.5 120 L 96.5 118 Z " /><path fill="rgb(214,128,45)" stroke="rgb(214,128,45)" stroke-width="1" opacity="1" d="M 145.5 119 L 148 120.5 L 146.5 121 L 145.5 119 Z " /><path fill="rgb(214,128,45)" stroke="rgb(214,128,45)" stroke-width="1" opacity="1" d="M 182.5 120 L 182.5 122 L 192.5 124 L 198.5 122 L 199 124 L 186.5 125 L 183.5 124 L 181.5 125 L 179 123.5 L 182.5 120 Z " /><path fill="rgb(214,128,45)" stroke="rgb(214,128,45)" stroke-width="1" opacity="1" d="M 234.5 120 L 233.5 122 L 234.5 120 Z " /><path fill="rgb(214,128,45)" stroke="rgb(214,128,45)" stroke-width="1" opacity="1" d="M 305.5 152 L 312 153 L 313 156.5 L 294 170.5 L 297.5 171 L 316.5 163 L 321 166 L 318.5 172 L 298 179.5 L 301.5 180 L 316.5 178 L 319 179 L 316.5 185 L 287 195 L 281 211.5 L 281 213.5 L 280 224.5 L 281 238.5 L 274.5 264 L 267.5 265 L 249 252.5 L 246 243.5 L 248 244.5 L 249.5 247 L 251 242.5 L 262 209.5 L 262 207.5 L 267 161 L 269 160.5 L 268.5 159 L 273.5 157 L 276 158 L 278 163.5 L 278.5 166 L 305.5 152 Z " /><path fill="rgb(214,128,45)" stroke="rgb(214,128,45)" stroke-width="1" opacity="1" d="M 208.5 154 L 207.5 156 L 208.5 154 Z " /><path fill="rgb(214,128,45)" stroke="rgb(214,128,45)" stroke-width="1" opacity="1" d="M 205.5 157 L 204.5 159 L 205.5 157 Z " /><path fill="rgb(214,128,45)" stroke="rgb(214,128,45)" stroke-width="1" opacity="1" d="M 67.5 174 L 70 174.5 L 69.5 176 L 73 177 Q 71.3 202.5 84 214 L 86 215.5 L 100 228 L 106.5 240 L 108 241.5 L 113 264.5 L 110 271 L 105.5 274 L 103.5 274 L 95.5 276 L 95.5 274 L 87 268.5 L 85 265.5 L 73 240.5 L 73 238.5 L 69 224 L 64.5 222 L 61.5 224 L 55.5 220 L 53 221 L 52.5 219 L 50.5 220 Q 31 222.5 24 212.5 L 24 208.5 L 25.5 206 L 42.5 207 L 42.5 206 L 22 197.5 L 21 194.5 L 30.5 191 L 49 199 L 44.5 193 L 28 185.5 L 29.5 181 L 37.5 180 L 59 190 L 65.5 175 L 67.5 174 Z M 63 221 L 61 223 L 63 223 L 63 221 Z " /><path fill="rgb(214,128,45)" stroke="rgb(214,128,45)" stroke-width="1" opacity="1" d="M 137.5 181 L 141 181.5 L 137.5 182 L 137.5 181 Z " /><path fill="rgb(214,128,45)" stroke="rgb(214,128,45)" stroke-width="1" opacity="1" d="M 190.5 182 L 206.5 184 L 209.5 185 L 237.5 196 L 239.5 196 L 241 197.5 L 245 205.5 L 243 205.5 L 244 207.5 L 242 217 L 238.5 218 L 231 214 L 225.5 205 L 222 203.5 L 221.5 202 L 220 204.5 L 231 244.5 L 229 249.5 L 230 253 L 227.5 254 L 224 246.5 L 224 244.5 L 198.5 199 L 197 197.5 L 184.5 193 L 182.5 193 L 175 196.5 L 173.5 198 L 168 201.5 L 168.5 203 L 167 204.5 L 158 212.5 L 140.5 240 L 136 244.5 L 135 244.5 L 143 211 L 138 213 L 135.5 215 L 134 218 L 129.5 220 L 127.5 219 L 121.5 221 L 116 217.5 L 115 208.5 L 117 204.5 L 118 201.5 L 120 198.5 L 126 190 L 129 188.5 L 130.5 187 L 132.5 187 L 139.5 184 L 141.5 185 L 143.5 184 L 148.5 186 L 152.5 184 L 165.5 187 L 190.5 182 Z " /><path fill="rgb(214,128,45)" stroke="rgb(214,128,45)" stroke-width="1" opacity="1" d="M 189.5 201 L 199 206.5 Q 218.7 230.3 223 269.5 L 222 272.5 L 223 277.5 L 209 315 L 207 316.5 L 201.5 322 L 160 322 L 158 317.5 L 146.5 289 L 145 289.5 L 143 264.5 L 155.5 222 L 157 222.5 L 156 220.5 L 159 219 L 159.5 217 L 161 217.5 L 162.5 215 L 164 213.5 L 163.5 212 L 166 213 L 167.5 211 L 189.5 201 Z " /><path fill="rgb(214,128,45)" stroke="rgb(214,128,45)" stroke-width="1" opacity="1" d="M 100.5 219 L 98.5 222 L 100.5 219 Z " /><path fill="rgb(214,128,45)" stroke="rgb(214,128,45)" stroke-width="1" opacity="1" d="M 285.5 233 L 286 245.5 L 285 245.5 L 285.5 233 Z " /><path fill="rgb(214,128,45)" stroke="rgb(214,128,45)" stroke-width="1" opacity="1" d="M 129.5 256 L 129.5 259 L 129.5 256 Z " /><path fill="rgb(214,128,45)" stroke="rgb(214,128,45)" stroke-width="1" opacity="1" d="M 137.5 257 L 139.5 262 L 141 261.5 L 140 264.5 L 141 266.5 L 138 290.5 L 143 310 L 146 311.5 L 149 321.5 L 116 322 L 135 263.5 L 134 260 L 136 258.5 L 137.5 257 Z " /><path fill="rgb(214,128,45)" stroke="rgb(214,128,45)" stroke-width="1" opacity="1" d="M 74.5 261 L 75.5 263 L 74.5 261 Z " /><path fill="rgb(214,128,45)" stroke="rgb(214,128,45)" stroke-width="1" opacity="1" d="M 77.5 265 L 78.5 267 L 77.5 265 Z " /><path fill="rgb(214,128,45)" stroke="rgb(214,128,45)" stroke-width="1" opacity="1" d="M 81.5 270 L 82.5 272 L 81.5 270 Z " /><path fill="rgb(214,128,45)" stroke="rgb(214,128,45)" stroke-width="1" opacity="1" d="M 84.5 273 L 85.5 275 L 84.5 273 Z " /><path fill="rgb(214,128,45)" stroke="rgb(214,128,45)" stroke-width="1" opacity="1" d="M 279.5 276 L 278.5 278 L 279.5 276 Z " /><path fill="rgb(214,128,45)" stroke="rgb(214,128,45)" stroke-width="1" opacity="1" d="M 111.5 278 L 109.5 281 L 111.5 278 Z " /><path fill="rgb(214,128,45)" stroke="rgb(214,128,45)" stroke-width="1" opacity="1" d="M 231.5 296 L 234.5 297 L 239 300.5 L 242 312.5 L 241 314.5 L 241 316.5 L 242 319.5 L 241.5 322 L 225 321.5 L 231.5 296 Z " /><path fill="rgb(135,55,21)" stroke="rgb(135,55,21)" stroke-width="1" opacity="1" d="M 215.5 24 Q 233.5 24 240 35.5 Q 253.2 51.8 250 84.5 L 248 92 L 244.5 90 L 239 108 L 234 106 L 232.5 109 L 231 110.5 L 230 113 L 240 115.5 L 233 121.5 L 237 122.5 L 224 143 L 204 158.5 L 199 168.5 L 208.5 180 L 226 183 L 231.5 186 L 246 198.5 L 254 212 L 256 209.5 L 257 205 L 259 201.5 L 261 179.5 L 260 165.5 L 267.5 152 L 271.5 151 L 278 155.5 L 280.5 164 L 309.5 149 L 316 152.5 L 317 161 L 324 163 L 326 170.5 L 321 179.5 L 323 183.5 L 318.5 190 L 290 196 L 285 213.5 L 282 269.5 L 283 272.5 L 276.5 282 L 269.5 284 L 248 270.5 L 235.5 251 L 235 256.5 L 250 321.5 L 242.5 322 L 242 319.5 L 241 316.5 L 241 314.5 L 242 312.5 L 235.5 297 L 233.5 298 L 231 296.5 L 224.5 322 L 202 321.5 L 207 315 L 209 313.5 Q 221.4 298.9 223 273.5 L 222 270.5 L 222 268.5 Q 218.5 226 195.5 203 L 189.5 201 L 166 211 L 162.5 215 L 160.5 218 L 159 217.5 L 157.5 219 L 157 221.5 L 156.5 223 L 155 222.5 Q 143.2 245.7 143 280.5 L 145.5 290 L 147 289.5 L 158 319 L 160 322 L 148 320.5 L 144.5 310 L 143 308.5 L 138 283.5 L 141 265.5 L 141 263.5 L 140.5 261 L 139 261.5 L 137.5 257 L 136 260 L 134 262.5 L 135 264.5 L 116 322 L 110 320.5 L 119.5 296 L 121 291.5 L 130 256.5 L 128 257.5 L 113 278 L 103.5 285 L 102 282 L 96.5 285 L 83 273 L 72 257.5 L 60.5 226 L 30.5 224 L 19 216.5 L 18 209.5 L 22 207 L 17 196.5 L 20.5 191 L 23 189.5 L 26.5 180 L 38.5 178 L 56.5 188 L 66.5 172 L 73.5 171 Q 81.4 177.1 77 195.5 L 86 211 L 98.5 222 L 124.5 187 L 135.5 179 L 137 182 L 153 175.5 L 151 172 L 154 170.5 L 147.5 161 L 111 133.5 L 114 129.5 L 111.5 128 L 108.5 129 L 98 120.5 L 96.5 118 L 93 120.5 L 91 123 L 89 119.5 L 78 100 L 75.5 101 Q 67.8 90.8 69 71.5 L 69 69.5 Q 72.2 46.7 86.5 35 Q 94 27.5 111.5 30 L 130 41.5 L 139.5 62 L 151.5 47 L 154.5 51 L 184.5 39 L 187 42.5 L 186 49 L 195 47.5 L 207.5 27 L 215.5 24 Z M 227 31 L 219 34 L 212 42 L 215 46 L 217 47 L 235 84 L 242 88 L 248 75 Q 249 49 237 38 L 227 31 Z M 99 32 L 88 37 L 79 47 L 81 49 L 82 47 L 99 36 Q 120 35 127 48 L 129 49 L 131 53 L 133 55 L 132 57 L 134 68 L 136 67 L 127 42 Q 120 30 99 32 Z M 109 46 L 96 49 L 94 48 L 86 54 L 82 56 L 72 79 L 74 96 L 78 95 L 89 117 L 93 119 L 95 115 L 104 122 L 111 89 L 109 76 L 114 79 L 115 74 L 115 72 L 117 70 L 116 69 L 120 61 L 111 48 L 109 46 Z M 180 53 L 178 54 L 176 54 L 156 58 L 152 60 L 150 64 L 150 66 L 143 76 L 128 83 L 119 112 L 119 114 L 121 115 L 133 145 L 136 146 L 136 149 L 170 168 Q 196 169 206 153 L 207 151 L 212 148 L 215 146 L 226 128 L 223 108 L 220 113 L 208 119 L 206 119 L 202 120 L 195 138 L 200 141 L 185 146 L 174 145 L 187 138 L 186 131 L 177 125 L 161 128 L 155 126 L 151 124 L 138 118 L 133 102 L 133 100 L 140 86 L 154 78 L 173 84 L 178 92 L 180 92 L 182 95 L 183 102 L 182 105 L 182 107 L 184 110 L 193 109 L 195 109 L 198 110 L 197 109 L 199 108 L 196 101 Q 195 83 205 78 L 202 73 L 203 69 L 212 64 L 192 55 L 183 53 L 183 55 L 180 53 Z M 158 80 L 149 84 L 146 86 L 138 99 L 139 102 L 138 107 L 141 117 L 155 123 L 172 118 L 178 108 L 174 89 L 158 80 Z M 207 80 L 201 85 L 207 85 L 212 95 L 209 107 L 205 109 L 203 108 L 201 110 L 209 113 L 214 112 L 220 103 L 215 83 L 207 80 Z M 203 89 L 200 90 L 198 95 L 199 100 L 205 102 L 208 96 L 206 90 L 203 89 Z M 190 118 L 179 124 L 182 125 L 184 124 L 187 125 L 199 124 L 200 120 L 190 118 Z M 306 152 L 279 166 L 278 164 L 276 158 L 274 157 L 269 159 L 269 161 L 267 161 L 262 208 L 262 210 L 251 243 L 250 247 L 248 245 L 246 244 L 249 253 L 268 265 L 275 264 L 281 239 L 280 225 L 281 214 L 281 212 L 287 195 L 317 185 L 319 179 L 317 178 L 302 180 L 298 180 L 319 172 L 321 166 L 317 163 L 298 171 L 294 171 L 313 157 L 312 153 L 306 152 Z M 68 174 L 66 175 L 59 190 L 38 180 L 30 181 L 28 186 L 45 193 L 49 199 L 31 191 L 21 195 L 22 198 L 43 206 L 43 207 L 26 206 L 24 209 L 24 213 Q 31 222 51 220 L 53 219 L 53 221 L 56 220 L 60 222 L 63 221 L 63 223 L 65 222 L 69 224 L 73 239 L 73 241 L 85 266 L 87 269 L 97 275 L 104 274 L 106 274 L 110 271 L 113 265 L 108 242 L 107 240 L 100 228 L 86 216 L 84 214 Q 71 203 73 177 L 68 174 Z M 191 182 L 166 187 L 153 184 L 149 186 L 144 184 L 142 185 L 140 184 L 133 187 L 131 187 L 129 189 L 126 190 L 120 199 L 118 202 L 117 205 L 115 209 L 116 218 L 122 221 L 128 219 L 130 220 L 134 218 L 136 215 L 138 213 L 143 211 L 135 245 L 136 245 L 141 240 L 158 213 L 167 205 L 169 203 L 168 202 L 174 198 L 175 197 L 183 193 L 185 193 L 193 194 L 195 194 L 196 195 L 194 196 L 197 198 L 199 199 L 224 245 L 224 247 L 228 254 L 230 253 L 229 250 L 231 245 L 220 205 L 222 202 L 222 204 L 226 205 L 231 214 L 239 218 L 242 217 L 243 209 L 243 207 L 244 201 L 243 201 L 241 198 L 240 196 L 238 196 L 210 185 L 207 184 L 191 182 Z " /><path fill="rgb(135,55,21)" stroke="rgb(135,55,21)" stroke-width="1" opacity="1" d="M 160.5 85 L 172 89.5 L 176 101.5 L 169.5 114 L 159.5 115 L 155 111.5 L 152 98.5 L 158.5 86 L 160.5 85 Z M 167 90 L 165 91 L 161 98 L 162 104 L 167 107 L 170 106 L 173 101 L 172 93 L 167 90 Z " /></svg>