<?xml version="1.0" encoding="UTF-8"?>
<svg xmlns="http://www.w3.org/2000/svg" xmlns:xlink="http://www.w3.org/1999/xlink" viewBox="0 0 24 24" width="24px" height="24px">
<g id="surface15294547">
<path style=" stroke:none;fill-rule:nonzero;fill:rgb(100%,100%,100%);fill-opacity:1;" d="M 22 20 L 20 22 L 14 16 L 14 14 L 16 14 Z M 22 20 "/>
<path style=" stroke:none;fill-rule:nonzero;fill:rgb(100%,100%,100%);fill-opacity:1;" d="M 9 16 C 5.101562 16 2 12.898438 2 9 C 2 5.101562 5.101562 2 9 2 C 12.898438 2 16 5.101562 16 9 C 16 12.898438 12.898438 16 9 16 Z M 9 4 C 6.199219 4 4 6.199219 4 9 C 4 11.800781 6.199219 14 9 14 C 11.800781 14 14 11.800781 14 9 C 14 6.199219 11.800781 4 9 4 Z M 9 4 "/>
<path style=" stroke:none;fill-rule:nonzero;fill:rgb(100%,100%,100%);fill-opacity:1;" d="M 12.625 13.402344 L 13.332031 12.695312 L 15.804688 15.167969 L 15.097656 15.875 Z M 12.625 13.402344 "/>
</g>
</svg>
